<?xml version="1.0" standalone="no"?>
<!DOCTYPE svg PUBLIC "-//W3C//DTD SVG 20010904//EN"
 "http://www.w3.org/TR/2001/REC-SVG-20010904/DTD/svg10.dtd">
<svg version="1.0" xmlns="http://www.w3.org/2000/svg"
 width="138.000000pt" height="137.000000pt" viewBox="0 0 138.000000 137.000000"
 preserveAspectRatio="xMidYMid meet">

<g transform="translate(0.000000,137.000000) scale(0.100000,-0.100000)"
fill="#000000" stroke="none">
<path d="M460 1351 c-123 -39 -229 -114 -312 -221 -137 -175 -161 -447 -58
-650 59 -115 177 -227 297 -281 99 -45 273 -77 273 -50 0 13 -26 21 -67 21
-151 0 -365 129 -452 274 -66 110 -85 177 -85 311 -1 132 16 200 73 300 81
142 238 254 404 290 15 3 27 10 27 15 0 15 -38 11 -100 -9z"/>
<path d="M516 1285 c-81 -21 -170 -70 -236 -131 -59 -56 -126 -156 -115 -174
9 -15 22 -4 42 38 10 20 47 67 84 103 71 71 152 117 248 139 74 17 211 8 283
-19 106 -41 207 -125 260 -218 30 -53 48 -67 48 -37 0 22 -16 50 -67 116 -50
65 -154 139 -240 169 -77 27 -227 34 -307 14z"/>
<path d="M1130 1240 c0 -6 21 -36 47 -68 93 -114 144 -259 145 -412 1 -269
-137 -492 -380 -614 -209 -105 -505 -79 -687 60 -24 18 -39 24 -46 17 -16 -16
44 -61 136 -104 200 -93 415 -92 610 1 249 120 395 356 395 634 0 119 -18 201
-64 299 -53 115 -156 238 -156 187z"/>
<path d="M349 831 c-13 -39 -27 -71 -31 -71 -4 0 -8 -4 -8 -10 0 -5 11 -10 25
-10 22 0 25 3 19 25 -6 23 -4 25 30 25 34 0 41 -6 37 -37 -1 -9 14 -13 49 -13
27 0 50 5 50 10 0 6 -4 10 -10 10 -11 0 -13 30 -4 54 3 9 15 16 25 16 10 0 19
4 19 9 0 6 -17 10 -39 9 l-38 0 5 -44 c4 -35 1 -44 -11 -44 -9 0 -23 24 -38
67 -33 94 -51 94 -80 4z m55 2 c6 -20 4 -23 -17 -23 -24 0 -25 1 -14 35 11 36
17 34 31 -12z"/>
<path d="M695 820 c0 -76 1 -80 23 -80 12 0 22 5 22 10 0 6 -4 10 -10 10 -6 0
-10 30 -10 70 0 49 -4 70 -12 70 -9 0 -13 -23 -13 -80z"/>
<path d="M762 891 c4 -13 18 -16 19 -4 0 4 -5 9 -11 12 -7 2 -11 -2 -8 -8z"/>
<path d="M578 863 c-3 -10 -2 -40 1 -68 5 -42 10 -51 29 -53 12 -2 22 1 22 7
0 6 -7 11 -15 11 -10 0 -15 11 -15 35 0 24 5 35 15 35 8 0 15 5 15 10 0 6 -7
10 -15 10 -8 0 -15 7 -15 15 0 21 -17 19 -22 -2z"/>
<path d="M755 795 c0 -50 2 -55 23 -55 12 0 22 5 22 10 0 6 -4 10 -10 10 -5 0
-10 20 -10 45 0 29 -4 45 -12 45 -9 0 -13 -18 -13 -55z"/>
<path d="M825 793 c0 -48 2 -53 23 -53 12 0 22 5 22 10 0 6 -5 10 -11 10 -6 0
-9 14 -7 32 5 57 57 48 58 -9 0 -13 -4 -23 -10 -23 -5 0 -10 -4 -10 -10 0 -5
11 -10 25 -10 22 0 24 3 18 33 -13 69 -18 75 -65 75 l-43 -1 0 -54z"/>
<path d="M976 834 c-36 -35 -7 -98 42 -92 37 4 38 23 0 23 -17 0 -33 6 -35 13
-3 8 7 12 31 12 28 0 36 4 36 18 0 39 -45 55 -74 26z m54 -14 c0 -5 -12 -10
-26 -10 -14 0 -23 4 -19 10 3 6 15 10 26 10 10 0 19 -4 19 -10z"/>
<path d="M135 629 c3 -17 10 -37 16 -45 6 -8 9 -14 5 -14 -4 0 0 -13 9 -30 9
-16 20 -30 26 -30 6 0 9 -7 6 -14 -4 -9 7 -28 22 -45 16 -17 26 -32 24 -35 -2
-2 9 -13 24 -25 15 -11 35 -26 43 -33 8 -7 18 -12 22 -11 5 2 8 -1 8 -6 0 -11
50 -44 67 -44 7 0 13 -4 13 -8 0 -5 7 -5 17 -2 10 4 14 2 10 -4 -7 -11 61 -35
76 -26 5 3 13 0 17 -7 16 -25 232 -14 276 15 13 8 33 15 44 15 14 0 19 4 14
12 -5 7 -2 9 9 5 9 -3 26 4 41 18 13 12 28 20 32 16 4 -3 3 0 -1 8 -6 10 -4
13 6 9 8 -3 31 11 54 33 22 21 34 39 28 39 -7 0 -13 -5 -13 -11 0 -5 -4 -8 -9
-4 -5 3 -18 -6 -29 -20 -11 -14 -24 -25 -29 -25 -6 0 -24 -13 -41 -29 -16 -16
-32 -27 -35 -24 -3 2 -19 -3 -37 -12 -18 -9 -42 -19 -53 -22 -37 -10 -297 -12
-291 -2 3 5 -3 9 -13 9 -17 0 -149 70 -190 100 -11 8 -41 47 -68 85 -26 39
-52 73 -57 76 -5 3 -8 10 -7 15 4 14 -21 93 -31 99 -5 3 -7 -9 -5 -26z"/>
<path d="M1146 653 c-3 -3 -6 -15 -6 -25 0 -10 -9 -37 -20 -59 -12 -22 -18
-44 -15 -49 3 -6 2 -10 -3 -10 -6 0 -12 -7 -16 -15 -3 -8 -2 -15 2 -15 11 0
56 80 45 80 -4 0 -2 4 5 9 8 5 15 21 15 37 1 16 6 32 10 35 5 4 5 9 -1 12 -5
4 -12 4 -16 0z"/>
<path d="M997 545 c-100 -157 -313 -231 -489 -169 -48 16 -68 18 -68 4 0 -16
69 -40 146 -51 128 -18 257 23 358 112 72 64 122 149 88 149 -4 0 -20 -20 -35
-45z"/>
<path d="M1049 448 c-7 -13 -6 -18 3 -18 7 0 18 8 25 18 9 15 8 19 -3 19 -9 0
-19 -9 -25 -19z"/>
</g>
</svg>
